<svg width="20" height="16" fill="none" xmlns="http://www.w3.org/2000/svg" class=""><path d="M20 1.896a8.406 8.406 0 01-2.356.637A4.06 4.06 0 0019.449.3c-.793.462-1.67.8-2.606.98A4.131 4.131 0 0013.846 0C11.58 0 9.744 1.808 9.744 4.037c0 .317.034.625.106.921A11.695 11.695 0 011.39.738a3.986 3.986 0 00-.555 2.029c0 1.4.725 2.637 1.827 3.362A4.057 4.057 0 01.8 5.625v.05c0 1.958 1.416 3.587 3.293 3.958a4.197 4.197 0 01-1.08.142c-.263 0-.522-.025-.772-.075.521 1.604 2.039 2.77 3.836 2.804A8.317 8.317 0 010 14.175 11.637 11.637 0 006.285 16c7.553 0 11.68-6.154 11.68-11.492 0-.175-.004-.35-.012-.52A8.345 8.345 0 0020 1.895z" fill="#616161"></path></svg>